<svg xmlns="http://www.w3.org/2000/svg" xmlns:xlink="http://www.w3.org/1999/xlink" width="500" zoomAndPan="magnify"
     viewBox="0 0 375 374.999991" height="200" preserveAspectRatio="xMidYMid meet" version="1.0">
    <defs>
        <g/>
        <clipPath id="id1">
            <path d="M 140.355469 108.253906 L 234.855469 108.253906 L 234.855469 202.753906 L 140.355469 202.753906 Z M 140.355469 108.253906 "
                  clip-rule="nonzero"/>
        </clipPath>
    </defs>
    <g clip-path="url(#id1)">
        <path fill="#000000"
              d="M 172.234375 156.984375 L 175.265625 158.375 L 175.265625 136.363281 L 172.234375 137.753906 Z M 220.308594 202.753906 L 217.539062 202.753906 L 217.539062 195.839844 L 212.894531 193.703125 L 212.894531 190.65625 L 217.539062 192.792969 L 217.539062 189.804688 L 212.894531 187.667969 L 212.894531 184.617188 L 217.539062 186.753906 L 217.539062 183.765625 L 212.894531 181.628906 L 212.894531 178.582031 L 217.539062 180.71875 L 217.539062 177.730469 L 210.496094 174.488281 L 209.996094 174.6875 L 209.996094 202.753906 C 206.460938 202.753906 202.929688 202.753906 199.394531 202.753906 L 199.394531 175.957031 L 207.226562 172.8125 L 207.226562 164.835938 L 202.273438 162.527344 L 202.273438 159.472656 L 207.226562 161.78125 L 207.226562 159.148438 L 202.273438 156.839844 L 202.273438 153.785156 L 207.226562 156.09375 L 207.226562 153.460938 L 202.273438 151.15625 L 202.273438 148.097656 L 207.226562 150.40625 L 207.226562 147.777344 L 196.625 142.835938 L 196.625 202.753906 L 184.105469 202.753906 L 184.105469 129.265625 L 169.464844 135.976562 L 169.464844 158.757812 L 180.136719 163.667969 C 180.136719 176.695312 180.136719 189.726562 180.136719 202.753906 L 166.726562 202.753906 C 166.726562 189.140625 166.726562 175.523438 166.726562 161.910156 L 163.519531 163.195312 L 157.667969 165.542969 L 157.667969 168.378906 L 163.519531 166.03125 L 163.519531 169.015625 L 157.667969 171.363281 L 157.667969 174.199219 L 163.519531 171.851562 L 163.519531 174.835938 L 157.667969 177.183594 L 157.667969 180.019531 L 163.519531 177.675781 L 163.519531 180.65625 L 157.667969 183.003906 L 157.667969 185.84375 L 163.519531 183.496094 L 163.519531 186.480469 L 157.667969 188.828125 L 157.667969 202.753906 L 140.355469 202.753906 L 140.355469 108.253906 L 234.855469 108.253906 L 234.855469 202.753906 Z M 143.121094 199.984375 L 143.121094 111.023438 L 232.085938 111.023438 L 232.085938 199.984375 L 220.308594 199.984375 L 220.308594 175.957031 L 210.566406 171.472656 L 209.996094 171.703125 C 209.996094 163.140625 209.996094 154.574219 209.996094 146.011719 L 193.757812 138.445312 L 186.847656 142.726562 L 186.847656 125 L 166.726562 134.214844 L 166.726562 158.925781 L 154.898438 163.667969 L 154.898438 199.988281 L 143.121094 199.988281 Z M 178.308594 134.96875 L 178.308594 159.777344 L 181.335938 161.167969 L 181.335938 133.582031 Z M 178.308594 134.96875 "
              fill-opacity="1" fill-rule="evenodd"/>
    </g>
    <g fill="#000000" fill-opacity="1">
        <g transform="translate(100.227709, 232.935527)">
            <g>
                <path d="M 1.75 -15.3125 C 2.8125 -15.445312 3.898438 -15.515625 5.015625 -15.515625 C 7.085938 -15.515625 8.664062 -15.023438 9.75 -14.046875 C 10.832031 -13.078125 11.375 -11.625 11.375 -9.6875 C 11.375 -7.957031 10.78125 -6.585938 9.59375 -5.578125 C 8.488281 -4.628906 7.066406 -4.15625 5.328125 -4.15625 C 5.128906 -4.15625 4.910156 -4.164062 4.671875 -4.1875 L 4.671875 0 L 1.75 0 Z M 5.359375 -12.75 C 5.128906 -12.75 4.898438 -12.742188 4.671875 -12.734375 L 4.671875 -6.703125 C 4.910156 -6.679688 5.207031 -6.671875 5.5625 -6.671875 C 5.914062 -6.671875 6.28125 -6.742188 6.65625 -6.890625 C 7.039062 -7.035156 7.363281 -7.242188 7.625 -7.515625 C 8.164062 -8.066406 8.4375 -8.800781 8.4375 -9.71875 C 8.4375 -11.738281 7.410156 -12.75 5.359375 -12.75 Z M 5.359375 -12.75 "/>
            </g>
        </g>
    </g>
    <g fill="#000000" fill-opacity="1">
        <g transform="translate(121.830465, 232.935527)">
            <g>
                <path d="M 6.890625 -5.921875 C 6.660156 -5.898438 6.414062 -5.890625 6.15625 -5.890625 C 5.894531 -5.890625 5.507812 -5.910156 5 -5.953125 L 5 0 L 1.96875 0 L 1.96875 -15.3125 C 3.039062 -15.445312 4.351562 -15.515625 5.90625 -15.515625 C 8.03125 -15.515625 9.613281 -15.125 10.65625 -14.34375 C 11.695312 -13.5625 12.21875 -12.351562 12.21875 -10.71875 C 12.21875 -9.445312 11.738281 -8.363281 10.78125 -7.46875 C 10.46875 -7.175781 10.113281 -6.921875 9.71875 -6.703125 L 12.046875 -1.78125 C 12.503906 -0.769531 12.851562 -0.171875 13.09375 0.015625 L 13.046875 0.078125 C 12.304688 -0.046875 11.140625 -0.0390625 9.546875 0.09375 Z M 6.125 -12.8125 C 5.738281 -12.8125 5.363281 -12.789062 5 -12.75 L 5 -8.375 C 5.375 -8.320312 5.8125 -8.296875 6.3125 -8.296875 C 6.820312 -8.296875 7.25 -8.335938 7.59375 -8.421875 C 7.9375 -8.515625 8.234375 -8.65625 8.484375 -8.84375 C 9.023438 -9.25 9.296875 -9.851562 9.296875 -10.65625 C 9.296875 -11.46875 9.015625 -12.039062 8.453125 -12.375 C 7.921875 -12.664062 7.144531 -12.8125 6.125 -12.8125 Z M 6.125 -12.8125 "/>
            </g>
        </g>
    </g>
    <g fill="#000000" fill-opacity="1">
        <g transform="translate(145.345346, 232.935527)">
            <g>
                <path d="M 3.21875 -1.8125 C 2.519531 -2.476562 1.96875 -3.273438 1.5625 -4.203125 C 1.164062 -5.128906 0.96875 -6.148438 0.96875 -7.265625 C 0.96875 -8.378906 1.15625 -9.429688 1.53125 -10.421875 C 1.90625 -11.410156 2.441406 -12.28125 3.140625 -13.03125 C 3.835938 -13.789062 4.675781 -14.394531 5.65625 -14.84375 C 6.644531 -15.289062 7.75 -15.515625 8.96875 -15.515625 C 11.070312 -15.515625 12.847656 -14.851562 14.296875 -13.53125 C 15.835938 -12.101562 16.609375 -10.1875 16.609375 -7.78125 C 16.609375 -5.4375 15.8125 -3.492188 14.21875 -1.953125 C 13.238281 -0.992188 12.078125 -0.335938 10.734375 0.015625 C 10.066406 0.191406 9.285156 0.28125 8.390625 0.28125 C 7.503906 0.28125 6.59375 0.0976562 5.65625 -0.265625 C 4.726562 -0.628906 3.914062 -1.144531 3.21875 -1.8125 Z M 4.15625 -7.421875 C 4.15625 -6.710938 4.269531 -6.054688 4.5 -5.453125 C 4.738281 -4.859375 5.070312 -4.347656 5.5 -3.921875 C 6.394531 -3.023438 7.539062 -2.578125 8.9375 -2.578125 C 10.28125 -2.578125 11.351562 -3.007812 12.15625 -3.875 C 12.988281 -4.757812 13.40625 -5.976562 13.40625 -7.53125 C 13.40625 -8.976562 13.007812 -10.1875 12.21875 -11.15625 C 11.375 -12.195312 10.210938 -12.71875 8.734375 -12.71875 C 7.304688 -12.71875 6.175781 -12.1875 5.34375 -11.125 C 4.550781 -10.144531 4.15625 -8.910156 4.15625 -7.421875 Z M 4.15625 -7.421875 "/>
            </g>
        </g>
    </g>
    <g fill="#000000" fill-opacity="1">
        <g transform="translate(172.776059, 232.935527)">
            <g>
                <path d="M 1.75 -15.3125 C 2.8125 -15.445312 3.898438 -15.515625 5.015625 -15.515625 C 7.085938 -15.515625 8.664062 -15.023438 9.75 -14.046875 C 10.832031 -13.078125 11.375 -11.625 11.375 -9.6875 C 11.375 -7.957031 10.78125 -6.585938 9.59375 -5.578125 C 8.488281 -4.628906 7.066406 -4.15625 5.328125 -4.15625 C 5.128906 -4.15625 4.910156 -4.164062 4.671875 -4.1875 L 4.671875 0 L 1.75 0 Z M 5.359375 -12.75 C 5.128906 -12.75 4.898438 -12.742188 4.671875 -12.734375 L 4.671875 -6.703125 C 4.910156 -6.679688 5.207031 -6.671875 5.5625 -6.671875 C 5.914062 -6.671875 6.28125 -6.742188 6.65625 -6.890625 C 7.039062 -7.035156 7.363281 -7.242188 7.625 -7.515625 C 8.164062 -8.066406 8.4375 -8.800781 8.4375 -9.71875 C 8.4375 -11.738281 7.410156 -12.75 5.359375 -12.75 Z M 5.359375 -12.75 "/>
            </g>
        </g>
    </g>
    <g fill="#000000" fill-opacity="1">
        <g transform="translate(194.378818, 232.935527)">
            <g>
                <path d="M 9.625 -2.75 C 10.101562 -2.75 10.429688 -2.796875 10.609375 -2.890625 L 10.65625 -2.875 L 10.546875 0 L 1.96875 0 L 1.96875 -15.3125 C 2.175781 -15.289062 2.40625 -15.28125 2.65625 -15.28125 L 3.453125 -15.25 C 3.992188 -15.238281 4.578125 -15.234375 5.203125 -15.234375 C 6.953125 -15.234375 8.679688 -15.265625 10.390625 -15.328125 C 10.304688 -14.648438 10.265625 -13.75 10.265625 -12.625 C 10.265625 -12.507812 10.269531 -12.421875 10.28125 -12.359375 L 10.265625 -12.328125 C 9.867188 -12.441406 9.300781 -12.5 8.5625 -12.5 L 4.953125 -12.5 L 4.953125 -9.578125 L 7.671875 -9.578125 C 8.515625 -9.578125 9.019531 -9.597656 9.1875 -9.640625 L 9.21875 -6.8125 C 8.851562 -6.851562 8.378906 -6.875 7.796875 -6.875 L 4.953125 -6.875 L 4.953125 -2.75 Z M 9.625 -2.75 "/>
            </g>
        </g>
    </g>
    <g fill="#000000" fill-opacity="1">
        <g transform="translate(215.981576, 232.935527)">
            <g>
                <path d="M 6.890625 -5.921875 C 6.660156 -5.898438 6.414062 -5.890625 6.15625 -5.890625 C 5.894531 -5.890625 5.507812 -5.910156 5 -5.953125 L 5 0 L 1.96875 0 L 1.96875 -15.3125 C 3.039062 -15.445312 4.351562 -15.515625 5.90625 -15.515625 C 8.03125 -15.515625 9.613281 -15.125 10.65625 -14.34375 C 11.695312 -13.5625 12.21875 -12.351562 12.21875 -10.71875 C 12.21875 -9.445312 11.738281 -8.363281 10.78125 -7.46875 C 10.46875 -7.175781 10.113281 -6.921875 9.71875 -6.703125 L 12.046875 -1.78125 C 12.503906 -0.769531 12.851562 -0.171875 13.09375 0.015625 L 13.046875 0.078125 C 12.304688 -0.046875 11.140625 -0.0390625 9.546875 0.09375 Z M 6.125 -12.8125 C 5.738281 -12.8125 5.363281 -12.789062 5 -12.75 L 5 -8.375 C 5.375 -8.320312 5.8125 -8.296875 6.3125 -8.296875 C 6.820312 -8.296875 7.25 -8.335938 7.59375 -8.421875 C 7.9375 -8.515625 8.234375 -8.65625 8.484375 -8.84375 C 9.023438 -9.25 9.296875 -9.851562 9.296875 -10.65625 C 9.296875 -11.46875 9.015625 -12.039062 8.453125 -12.375 C 7.921875 -12.664062 7.144531 -12.8125 6.125 -12.8125 Z M 6.125 -12.8125 "/>
            </g>
        </g>
    </g>
    <g fill="#000000" fill-opacity="1">
        <g transform="translate(239.49646, 232.935527)">
            <g>
                <path d="M 7.46875 0.0625 C 7.101562 0.0195312 6.160156 0 4.640625 0 L 4.265625 0 L 4.265625 -12.671875 L 2 -12.671875 C 1.332031 -12.671875 0.9375 -12.632812 0.8125 -12.5625 C 0.6875 -12.488281 0.59375 -12.425781 0.53125 -12.375 L 0.5 -12.390625 L 0.5 -15.328125 L 0.53125 -15.359375 C 0.78125 -15.273438 1.457031 -15.234375 2.5625 -15.234375 L 9.75 -15.234375 C 10.414062 -15.234375 10.8125 -15.265625 10.9375 -15.328125 C 11.0625 -15.398438 11.15625 -15.460938 11.21875 -15.515625 L 11.25 -15.5 L 11.25 -12.578125 L 11.21875 -12.546875 C 10.96875 -12.628906 10.289062 -12.671875 9.1875 -12.671875 L 7.46875 -12.671875 Z M 7.46875 0.0625 "/>
            </g>
        </g>
    </g>
    <g fill="#000000" fill-opacity="1">
        <g transform="translate(261.099219, 232.935527)">
            <g>
                <path d="M 5.171875 0 C 5.265625 -0.300781 5.3125 -0.992188 5.3125 -2.078125 L 5.3125 -5.265625 C 3.988281 -8.171875 3.144531 -9.984375 2.78125 -10.703125 C 2.414062 -11.429688 2.109375 -12.003906 1.859375 -12.421875 C 1.066406 -13.765625 0.585938 -14.535156 0.421875 -14.734375 C 0.253906 -14.929688 0.0859375 -15.097656 -0.078125 -15.234375 L 3.875 -15.234375 C 3.957031 -15.078125 4.070312 -14.851562 4.21875 -14.5625 L 6.984375 -8.703125 C 7.117188 -9.023438 7.269531 -9.382812 7.4375 -9.78125 C 9.101562 -13.363281 9.945312 -15.179688 9.96875 -15.234375 L 13.75 -15.234375 C 13.363281 -14.921875 12.890625 -14.265625 12.328125 -13.265625 C 12.148438 -12.960938 11.972656 -12.617188 11.796875 -12.234375 L 9.203125 -6.84375 C 8.910156 -6.195312 8.664062 -5.613281 8.46875 -5.09375 L 8.46875 -1.8125 C 8.46875 -1.050781 8.507812 -0.445312 8.59375 0 Z M 5.171875 0 "/>
            </g>
        </g>
    </g>
    <g fill="#000000" fill-opacity="1">
        <g transform="translate(151.555673, 263.438904)">
            <g>
                <path d="M 7.15625 -12.015625 C 8.269531 -12.015625 9.113281 -11.785156 9.6875 -11.328125 C 10.257812 -10.867188 10.546875 -10.242188 10.546875 -9.453125 C 10.546875 -8.566406 10.273438 -7.769531 9.734375 -7.0625 C 9.191406 -6.363281 8.429688 -5.816406 7.453125 -5.421875 C 6.484375 -5.023438 5.375 -4.828125 4.125 -4.828125 L 3.625 -4.828125 L 2.828125 -1.796875 C 2.796875 -1.722656 2.757812 -1.59375 2.71875 -1.40625 C 2.675781 -1.21875 2.65625 -1.066406 2.65625 -0.953125 C 2.65625 -0.734375 2.738281 -0.578125 2.90625 -0.484375 C 3.070312 -0.398438 3.378906 -0.351562 3.828125 -0.34375 L 3.75 0 C 3.226562 -0.03125 2.53125 -0.046875 1.65625 -0.046875 C 0.65625 -0.046875 -0.0820312 -0.03125 -0.5625 0 L -0.5 -0.34375 C -0.0820312 -0.363281 0.222656 -0.40625 0.421875 -0.46875 C 0.628906 -0.539062 0.789062 -0.671875 0.90625 -0.859375 C 1.03125 -1.054688 1.148438 -1.367188 1.265625 -1.796875 L 3.5 -10.234375 C 3.601562 -10.640625 3.65625 -10.910156 3.65625 -11.046875 C 3.65625 -11.273438 3.566406 -11.4375 3.390625 -11.53125 C 3.222656 -11.625 2.925781 -11.679688 2.5 -11.703125 L 2.578125 -12.03125 C 3.035156 -12 3.734375 -11.984375 4.671875 -11.984375 C 5.210938 -11.984375 5.625 -11.988281 5.90625 -12 Z M 4.296875 -5.171875 C 5.890625 -5.171875 7.039062 -5.582031 7.75 -6.40625 C 8.46875 -7.238281 8.828125 -8.34375 8.828125 -9.71875 C 8.828125 -10.394531 8.65625 -10.894531 8.3125 -11.21875 C 7.96875 -11.539062 7.414062 -11.703125 6.65625 -11.703125 C 6.320312 -11.703125 6.054688 -11.65625 5.859375 -11.5625 C 5.671875 -11.476562 5.515625 -11.332031 5.390625 -11.125 C 5.273438 -10.925781 5.164062 -10.628906 5.0625 -10.234375 L 3.71875 -5.171875 Z M 4.296875 -5.171875 "/>
            </g>
        </g>
    </g>
    <g fill="#000000" fill-opacity="1">
        <g transform="translate(162.413875, 263.438904)">
            <g>
                <path d="M 6.71875 -8.96875 C 7.019531 -8.96875 7.257812 -8.878906 7.4375 -8.703125 C 7.625 -8.523438 7.71875 -8.289062 7.71875 -8 C 7.71875 -7.664062 7.597656 -7.378906 7.359375 -7.140625 C 7.117188 -6.898438 6.84375 -6.78125 6.53125 -6.78125 C 6.320312 -6.78125 6.15625 -6.832031 6.03125 -6.9375 C 5.90625 -7.050781 5.84375 -7.203125 5.84375 -7.390625 C 5.84375 -7.648438 5.910156 -7.867188 6.046875 -8.046875 C 6.179688 -8.234375 6.367188 -8.378906 6.609375 -8.484375 C 6.566406 -8.523438 6.503906 -8.546875 6.421875 -8.546875 C 5.816406 -8.546875 5.148438 -7.882812 4.421875 -6.5625 C 3.703125 -5.25 3.023438 -3.507812 2.390625 -1.34375 L 2.0625 0 L 0.578125 0 L 2.625 -7.296875 C 2.695312 -7.546875 2.734375 -7.765625 2.734375 -7.953125 C 2.734375 -8.210938 2.613281 -8.34375 2.375 -8.34375 C 2.125 -8.34375 1.894531 -8.207031 1.6875 -7.9375 C 1.476562 -7.675781 1.265625 -7.234375 1.046875 -6.609375 L 0.828125 -5.984375 L 0.515625 -5.984375 L 0.9375 -7.21875 C 1.34375 -8.382812 2.023438 -8.96875 2.984375 -8.96875 C 3.640625 -8.96875 3.96875 -8.640625 3.96875 -7.984375 C 3.96875 -7.671875 3.882812 -7.207031 3.71875 -6.59375 L 3.171875 -4.453125 C 3.785156 -6.097656 4.363281 -7.257812 4.90625 -7.9375 C 5.445312 -8.625 6.050781 -8.96875 6.71875 -8.96875 Z M 6.71875 -8.96875 "/>
            </g>
        </g>
    </g>
    <g fill="#000000" fill-opacity="1">
        <g transform="translate(170.502354, 263.438904)">
            <g>
                <path d="M 7.078125 -7.859375 C 7.078125 -6.941406 6.5625 -6.132812 5.53125 -5.4375 C 4.5 -4.75 3.316406 -4.1875 1.984375 -3.75 C 1.859375 -3.1875 1.796875 -2.640625 1.796875 -2.109375 C 1.796875 -1.015625 2.1875 -0.46875 2.96875 -0.46875 C 3.945312 -0.46875 4.820312 -1.035156 5.59375 -2.171875 L 5.859375 -2.046875 C 5.503906 -1.421875 5.015625 -0.882812 4.390625 -0.4375 C 3.773438 0.0078125 3.128906 0.234375 2.453125 0.234375 C 1.742188 0.234375 1.191406 0.03125 0.796875 -0.375 C 0.398438 -0.78125 0.203125 -1.375 0.203125 -2.15625 C 0.203125 -3.019531 0.453125 -3.992188 0.953125 -5.078125 C 1.460938 -6.160156 2.144531 -7.078125 3 -7.828125 C 3.863281 -8.585938 4.800781 -8.96875 5.8125 -8.96875 C 6.175781 -8.96875 6.476562 -8.867188 6.71875 -8.671875 C 6.957031 -8.484375 7.078125 -8.210938 7.078125 -7.859375 Z M 5.4375 -8.65625 C 5.070312 -8.65625 4.664062 -8.441406 4.21875 -8.015625 C 3.769531 -7.585938 3.347656 -7.019531 2.953125 -6.3125 C 2.566406 -5.613281 2.273438 -4.867188 2.078125 -4.078125 C 3.148438 -4.453125 3.921875 -4.816406 4.390625 -5.171875 C 4.804688 -5.492188 5.128906 -5.890625 5.359375 -6.359375 C 5.597656 -6.835938 5.71875 -7.347656 5.71875 -7.890625 C 5.71875 -8.191406 5.691406 -8.394531 5.640625 -8.5 C 5.597656 -8.601562 5.53125 -8.65625 5.4375 -8.65625 Z M 5.4375 -8.65625 "/>
            </g>
        </g>
    </g>
    <g fill="#000000" fill-opacity="1">
        <g transform="translate(178.641817, 263.438904)">
            <g>
                <path d="M 12.90625 -2.75 L 12.484375 -1.515625 C 12.066406 -0.347656 11.378906 0.234375 10.421875 0.234375 C 9.910156 0.234375 9.554688 0.0820312 9.359375 -0.21875 C 9.265625 -0.382812 9.21875 -0.582031 9.21875 -0.8125 C 9.21875 -1.125 9.3125 -1.566406 9.5 -2.140625 L 11.125 -7 C 11.226562 -7.34375 11.28125 -7.644531 11.28125 -7.90625 C 11.28125 -8.257812 11.15625 -8.4375 10.90625 -8.4375 C 10.257812 -8.4375 9.53125 -7.695312 8.71875 -6.21875 C 7.914062 -4.738281 7.132812 -2.78125 6.375 -0.34375 L 6.390625 -0.4375 L 6.265625 0 L 4.75 0 L 6.875 -7 C 6.976562 -7.34375 7.03125 -7.632812 7.03125 -7.875 C 7.03125 -8.25 6.875 -8.4375 6.5625 -8.4375 C 6.144531 -8.4375 5.675781 -8.101562 5.15625 -7.4375 C 4.632812 -6.769531 4.117188 -5.863281 3.609375 -4.71875 C 3.109375 -3.582031 2.671875 -2.320312 2.296875 -0.9375 L 2.0625 0 L 0.578125 0 L 2.625 -7.296875 C 2.695312 -7.609375 2.734375 -7.816406 2.734375 -7.921875 C 2.734375 -8.203125 2.613281 -8.34375 2.375 -8.34375 C 2.125 -8.34375 1.894531 -8.207031 1.6875 -7.9375 C 1.476562 -7.675781 1.265625 -7.234375 1.046875 -6.609375 L 0.828125 -5.984375 L 0.515625 -5.984375 L 0.9375 -7.21875 C 1.34375 -8.382812 2.023438 -8.96875 2.984375 -8.96875 C 3.648438 -8.96875 3.984375 -8.628906 3.984375 -7.953125 C 3.984375 -7.660156 3.894531 -7.207031 3.71875 -6.59375 L 3.171875 -4.4375 C 3.859375 -6.09375 4.5 -7.257812 5.09375 -7.9375 C 5.695312 -8.625 6.375 -8.96875 7.125 -8.96875 C 7.875 -8.96875 8.25 -8.570312 8.25 -7.78125 C 8.25 -7.4375 8.164062 -6.976562 8 -6.40625 L 7.390625 -4.125 C 7.867188 -5.320312 8.316406 -6.265625 8.734375 -6.953125 C 9.148438 -7.648438 9.578125 -8.160156 10.015625 -8.484375 C 10.453125 -8.804688 10.9375 -8.96875 11.46875 -8.96875 C 12.269531 -8.96875 12.671875 -8.546875 12.671875 -7.703125 C 12.671875 -7.335938 12.585938 -6.90625 12.421875 -6.40625 L 10.78125 -1.4375 C 10.6875 -1.144531 10.640625 -0.929688 10.640625 -0.796875 C 10.640625 -0.523438 10.773438 -0.390625 11.046875 -0.390625 C 11.273438 -0.390625 11.492188 -0.515625 11.703125 -0.765625 C 11.910156 -1.023438 12.128906 -1.476562 12.359375 -2.125 L 12.578125 -2.75 Z M 12.90625 -2.75 "/>
            </g>
        </g>
    </g>
    <g fill="#000000" fill-opacity="1">
        <g transform="translate(193.238297, 263.438904)">
            <g>
                <path d="M 3.203125 -11.609375 C 3.203125 -11.953125 3.328125 -12.253906 3.578125 -12.515625 C 3.835938 -12.785156 4.128906 -12.921875 4.453125 -12.921875 C 4.710938 -12.921875 4.921875 -12.832031 5.078125 -12.65625 C 5.242188 -12.488281 5.328125 -12.28125 5.328125 -12.03125 C 5.328125 -11.695312 5.191406 -11.398438 4.921875 -11.140625 C 4.660156 -10.878906 4.367188 -10.75 4.046875 -10.75 C 3.796875 -10.75 3.59375 -10.828125 3.4375 -10.984375 C 3.28125 -11.148438 3.203125 -11.359375 3.203125 -11.609375 Z M 2.6875 -7.296875 C 2.78125 -7.566406 2.828125 -7.773438 2.828125 -7.921875 C 2.828125 -8.203125 2.703125 -8.34375 2.453125 -8.34375 C 2.191406 -8.34375 1.957031 -8.207031 1.75 -7.9375 C 1.539062 -7.664062 1.328125 -7.222656 1.109375 -6.609375 L 0.859375 -5.984375 L 0.546875 -5.984375 L 0.984375 -7.21875 C 1.210938 -7.863281 1.515625 -8.316406 1.890625 -8.578125 C 2.273438 -8.835938 2.675781 -8.96875 3.09375 -8.96875 C 3.84375 -8.96875 4.21875 -8.613281 4.21875 -7.90625 C 4.21875 -7.53125 4.125 -7.09375 3.9375 -6.59375 L 2.125 -1.4375 C 2.03125 -1.164062 1.984375 -0.957031 1.984375 -0.8125 C 1.984375 -0.53125 2.117188 -0.390625 2.390625 -0.390625 C 2.628906 -0.390625 2.847656 -0.519531 3.046875 -0.78125 C 3.253906 -1.039062 3.476562 -1.488281 3.71875 -2.125 L 3.96875 -2.75 L 4.28125 -2.75 L 3.84375 -1.515625 C 3.613281 -0.890625 3.3125 -0.441406 2.9375 -0.171875 C 2.570312 0.0976562 2.175781 0.234375 1.75 0.234375 C 0.957031 0.234375 0.5625 -0.109375 0.5625 -0.796875 C 0.5625 -1.128906 0.660156 -1.578125 0.859375 -2.140625 Z M 2.6875 -7.296875 "/>
            </g>
        </g>
    </g>
    <g fill="#000000" fill-opacity="1">
        <g transform="translate(199.21976, 263.438904)">
            <g>
                <path d="M 8.484375 -2.75 L 8.8125 -2.75 L 8.375 -1.515625 C 7.96875 -0.347656 7.285156 0.234375 6.328125 0.234375 C 6.140625 0.234375 5.96875 0.191406 5.8125 0.109375 C 5.65625 0.0351562 5.535156 -0.0703125 5.453125 -0.21875 C 5.390625 -0.375 5.359375 -0.550781 5.359375 -0.75 C 5.359375 -1.039062 5.4375 -1.503906 5.59375 -2.140625 L 6.125 -4.265625 C 5.46875 -2.648438 4.828125 -1.492188 4.203125 -0.796875 C 3.578125 -0.109375 2.894531 0.234375 2.15625 0.234375 C 1.207031 0.234375 0.734375 -0.203125 0.734375 -1.078125 C 0.734375 -1.429688 0.8125 -1.847656 0.96875 -2.328125 L 2.625 -7.296875 C 2.707031 -7.566406 2.75 -7.773438 2.75 -7.921875 C 2.75 -8.203125 2.613281 -8.34375 2.34375 -8.34375 C 2.113281 -8.34375 1.894531 -8.210938 1.6875 -7.953125 C 1.476562 -7.703125 1.257812 -7.253906 1.03125 -6.609375 L 0.8125 -5.984375 L 0.5 -5.984375 L 0.921875 -7.21875 C 1.328125 -8.382812 2.007812 -8.96875 2.96875 -8.96875 C 3.769531 -8.96875 4.171875 -8.617188 4.171875 -7.921875 C 4.171875 -7.578125 4.078125 -7.132812 3.890625 -6.59375 L 2.28125 -1.734375 C 2.164062 -1.390625 2.109375 -1.109375 2.109375 -0.890625 C 2.109375 -0.503906 2.289062 -0.3125 2.65625 -0.3125 C 3.09375 -0.3125 3.578125 -0.632812 4.109375 -1.28125 C 4.640625 -1.9375 5.164062 -2.84375 5.6875 -4 C 6.21875 -5.15625 6.675781 -6.457031 7.0625 -7.90625 L 7.265625 -8.734375 C 7.910156 -8.753906 8.425781 -8.832031 8.8125 -8.96875 L 6.703125 -1.4375 C 6.617188 -1.144531 6.578125 -0.925781 6.578125 -0.78125 C 6.578125 -0.519531 6.695312 -0.390625 6.9375 -0.390625 C 7.1875 -0.390625 7.414062 -0.519531 7.625 -0.78125 C 7.832031 -1.050781 8.046875 -1.5 8.265625 -2.125 Z M 8.484375 -2.75 "/>
            </g>
        </g>
    </g>
    <g fill="#000000" fill-opacity="1">
        <g transform="translate(209.704141, 263.438904)">
            <g>
                <path d="M 12.90625 -2.75 L 12.484375 -1.515625 C 12.066406 -0.347656 11.378906 0.234375 10.421875 0.234375 C 9.910156 0.234375 9.554688 0.0820312 9.359375 -0.21875 C 9.265625 -0.382812 9.21875 -0.582031 9.21875 -0.8125 C 9.21875 -1.125 9.3125 -1.566406 9.5 -2.140625 L 11.125 -7 C 11.226562 -7.34375 11.28125 -7.644531 11.28125 -7.90625 C 11.28125 -8.257812 11.15625 -8.4375 10.90625 -8.4375 C 10.257812 -8.4375 9.53125 -7.695312 8.71875 -6.21875 C 7.914062 -4.738281 7.132812 -2.78125 6.375 -0.34375 L 6.390625 -0.4375 L 6.265625 0 L 4.75 0 L 6.875 -7 C 6.976562 -7.34375 7.03125 -7.632812 7.03125 -7.875 C 7.03125 -8.25 6.875 -8.4375 6.5625 -8.4375 C 6.144531 -8.4375 5.675781 -8.101562 5.15625 -7.4375 C 4.632812 -6.769531 4.117188 -5.863281 3.609375 -4.71875 C 3.109375 -3.582031 2.671875 -2.320312 2.296875 -0.9375 L 2.0625 0 L 0.578125 0 L 2.625 -7.296875 C 2.695312 -7.609375 2.734375 -7.816406 2.734375 -7.921875 C 2.734375 -8.203125 2.613281 -8.34375 2.375 -8.34375 C 2.125 -8.34375 1.894531 -8.207031 1.6875 -7.9375 C 1.476562 -7.675781 1.265625 -7.234375 1.046875 -6.609375 L 0.828125 -5.984375 L 0.515625 -5.984375 L 0.9375 -7.21875 C 1.34375 -8.382812 2.023438 -8.96875 2.984375 -8.96875 C 3.648438 -8.96875 3.984375 -8.628906 3.984375 -7.953125 C 3.984375 -7.660156 3.894531 -7.207031 3.71875 -6.59375 L 3.171875 -4.4375 C 3.859375 -6.09375 4.5 -7.257812 5.09375 -7.9375 C 5.695312 -8.625 6.375 -8.96875 7.125 -8.96875 C 7.875 -8.96875 8.25 -8.570312 8.25 -7.78125 C 8.25 -7.4375 8.164062 -6.976562 8 -6.40625 L 7.390625 -4.125 C 7.867188 -5.320312 8.316406 -6.265625 8.734375 -6.953125 C 9.148438 -7.648438 9.578125 -8.160156 10.015625 -8.484375 C 10.453125 -8.804688 10.9375 -8.96875 11.46875 -8.96875 C 12.269531 -8.96875 12.671875 -8.546875 12.671875 -7.703125 C 12.671875 -7.335938 12.585938 -6.90625 12.421875 -6.40625 L 10.78125 -1.4375 C 10.6875 -1.144531 10.640625 -0.929688 10.640625 -0.796875 C 10.640625 -0.523438 10.773438 -0.390625 11.046875 -0.390625 C 11.273438 -0.390625 11.492188 -0.515625 11.703125 -0.765625 C 11.910156 -1.023438 12.128906 -1.476562 12.359375 -2.125 L 12.578125 -2.75 Z M 12.90625 -2.75 "/>
            </g>
        </g>
    </g>
</svg>
